<svg width="200" height="144" viewBox="0 0 200 144" fill="none" xmlns="http://www.w3.org/2000/svg">
<path fill-rule="evenodd" clip-rule="evenodd" d="M127.789 143.918H195.637V83.6892H140.759C138.704 89.2772 133.596 92.8398 127.789 93.1691V143.918ZM4.90537 83.6892V143.918H72.7533V93.1691C66.9453 92.8424 61.8373 89.2772 59.7813 83.6892H4.90537ZM74.344 80.8545C73.3267 81.1758 71.5094 80.8998 71.1601 78.9252C70.1814 73.4185 70.1694 67.8705 71.1027 62.2892C71.5107 59.8545 73.4627 59.7358 74.736 59.9558C90.7054 62.7065 109.836 62.7065 125.804 59.9558C127.077 59.7358 129.029 59.8545 129.437 62.2892C130.371 67.8705 130.359 73.4185 129.38 78.9252C129.031 80.8998 127.245 81.0545 126.197 80.8545C119.587 79.5865 110.884 78.9118 102.053 78.8304C104.18 77.4558 106.9 76.0251 110.387 74.6958C95.976 74.8265 84.5067 77.6518 74.344 80.8545V80.8545ZM115.885 112.344V91.7664C112.571 91.4291 109.024 91.2051 105.408 91.0971V112.344H115.885ZM105.408 143.918H115.885V122.672H105.408V143.918ZM95.1334 112.344V91.0971C91.516 91.2051 87.972 91.4291 84.656 91.7664V112.344H95.1334ZM84.656 143.918H95.1334V122.672H84.656V143.918ZM7.20133 58.1358C2.08933 61.9184 0.792022 64.5158 0.589355 70.1291H58.1453C58.1653 66.8358 58.4521 63.5411 58.9987 60.2638C60.4654 51.5091 68.2734 46.3892 76.8214 47.8612C91.6267 50.4118 108.915 50.4118 123.719 47.8612C132.267 46.3892 140.075 51.5091 141.541 60.2638C142.089 63.5411 142.377 66.8358 142.395 70.1291H199.952C199.752 64.5158 198.453 61.9184 193.34 58.1358C155.321 30.0624 145.511 15.8411 100.303 12.4998C110.121 9.28645 119.456 8.94778 127.624 9.96912C124.095 7.75845 120.651 5.93583 117.256 4.51983C105.793 -0.264167 94.8907 -0.434845 83.228 4.50916C63.3627 12.9305 25.1387 44.9691 7.20133 58.1358" fill="white"/>
</svg>
