<?xml version="1.0" encoding="utf-8"?>
<!-- Svg Vector Icons : http://www.onlinewebfonts.com/icon -->
<!DOCTYPE svg PUBLIC "-//W3C//DTD SVG 1.1//EN" "http://www.w3.org/Graphics/SVG/1.1/DTD/svg11.dtd">
<svg version="1.1" xmlns="http://www.w3.org/2000/svg" xmlns:xlink="http://www.w3.org/1999/xlink" x="0px" y="0px" viewBox="0 0 1000 1000" enable-background="new 0 0 1000 1000" xml:space="preserve" fill="white"> 
<metadata> Svg Vector Icons : http://www.onlinewebfonts.com/icon </metadata>
<g><g transform="translate(0.000000,511.000000) scale(0.100000,-0.100000)"><path d="M3495.8,4975.2c-80.5-16.6-208.3-61.5-284-97c-168-82.8-421.3-326.6-511.2-497c-139.6-260.3-137.3-222.5-137.3-2333.5V111.8h-655.6c-362.1,0-726.6-11.8-811.8-23.7C634.6,14.7,234.6-366.3,137.6-827.8c-49.7-231.9-49.7-2785.5-2.4-3015.1c87.6-404.7,355-714.7,759.7-875.7l142-56.8l3881.3-7.1c2821.1-4.7,3919.2,0,4023.3,18.9c452,85.2,837.8,466.3,932.5,918.3c16.6,82.8,26,591.7,26,1514.6c0,1512.3,0,1519.4-137.3,1798.7c-82.8,172.8-310,400-494.6,497c-243.8,127.8-385.8,146.7-1147.8,146.7H7441l-7.1,2006.9l-7.1,2004.6l-87.6,184.6c-142,298.2-383.4,520.7-695.8,636.6c-137.3,52.1-153.8,54.4-1571.5,59.2C3938.4,5006,3609.5,5001.3,3495.8,4975.2z M5145.4,3451.1l56.8-45v-833.1V1740l-66.3-56.8c-87.6-73.4-191.7-73.4-265.1,2.4l-59.2,56.8v546.7v544.3h-213c-184.6,0-215.4,4.7-236.7,45c-61.5,118.3-4.7,196.4,177.5,241.4c179.9,42.6,241.4,82.8,310,198.8C4951.3,3493.7,5043.6,3533.9,5145.4,3451.1z M8020.9-1483.4c279.3-127.8,362.1-511.2,151.5-712.4l-71-66.3l80.5-54.5c106.5-73.4,156.2-187,156.2-362.1c0-248.5-116-426-336.1-525.4c-163.3-71-494.6-78.1-662.7-14.2c-130.2,49.7-291.1,215.4-314.8,321.9c-21.3,104.1,23.7,205.9,111.2,241.4c97,40.3,177.5-4.7,250.8-139.6c68.6-123.1,116-149.1,267.4-151.5c189.3,0,288.7,92.3,288.7,274.5c0,118.3-75.7,189.3-222.5,213c-144.4,23.7-210.6,71-210.6,153.8c0,92.3,66.3,142,213,165.7c146.7,23.7,189.3,66.3,189.3,196.4c0,137.3-80.5,208.3-239,208.3c-125.4,0-158.6-21.3-321.9-220.1c-63.9-80.5-175.1-85.2-246.1-14.2c-40.2,40.3-47.3,71-40.2,151.5c16.6,134.9,85.2,224.8,229.6,302.9C7521.5-1391.1,7791.3-1379.2,8020.9-1483.4z M2572.9-1459.7c269.8-80.4,416.5-262.7,416.5-508.8c0-274.5-94.7-404.7-449.7-610.6c-262.7-156.2-449.7-286.3-449.7-317.1c0-11.8,175.1-21.3,402.3-21.3c397.6,0,404.7,0,461.5-59.2c71-68.7,75.7-160.9,11.8-224.8c-45-45-78.1-47.3-627.2-47.3h-582.2l-56.8,59.2c-165.7,163.3,30.8,468.6,473.3,745.5c116,71,255.6,172.8,314.8,227.2c89.9,80.5,106.5,108.9,108.9,191.7c4.7,182.2-97,281.6-286.4,276.9c-139.6-2.3-220.1-66.3-284-222.4c-56.8-144.4-104.1-189.3-201.2-189.3c-170.4,0-220.1,229.6-92.3,433.1C1891.3-1481,2255.7-1365,2572.9-1459.7z"/></g></g>
</svg>