<svg width="203" height="181" viewBox="0 0 203 181" fill="none" xmlns="http://www.w3.org/2000/svg">
<path fill-rule="evenodd" clip-rule="evenodd" d="M1.17464 175.723C3.92264 183.116 15.08 181.569 14.6773 173.261C14.5493 170.615 13.6666 168.44 13.6666 168.44C15.808 168.708 17.0626 169.868 17.7253 171.497C18.352 171.191 19.0266 170.939 19.6786 170.724C23.0733 169.605 28.4293 167.603 34.176 165.324C31.8293 161.199 29.252 156.979 28.28 155.169L27.488 153.663C22.0373 155.855 16.54 157.959 13.4733 159.073C3.31197 162.763 -1.56936 168.345 1.17464 175.723V175.723ZM55.472 138.917C57.9253 143.725 60.756 148.632 62.748 152.237C71.4893 147.735 80.8733 142.427 90.5373 136.231C85.4266 132.549 80.4373 128.731 75.576 124.772C68.924 129.923 62.1866 134.585 55.472 138.917ZM84.964 101.028C62.0986 81.352 42.5946 58.1906 27.8653 31.6079C34.824 34.4319 41.872 36.5426 48.4 37.5666C57.9053 62.2559 69.86 82.9347 84.964 101.028ZM147.189 138.916C113.14 116.944 78.5213 86.6013 57.0986 26.1346C41.2253 26.3626 13.3613 13.6706 0.423956 0.103966C29.4693 82.0973 93.6453 128.409 139.915 152.237C141.907 148.631 144.735 143.721 147.189 138.916V138.916ZM201.487 175.723C198.739 183.116 187.579 181.568 187.984 173.261C188.113 170.615 188.993 168.44 188.993 168.44C186.852 168.708 185.597 169.868 184.935 171.499C184.307 171.188 183.633 170.939 182.98 170.724C179.585 169.605 174.233 167.604 168.484 165.325C170.831 161.2 173.409 156.979 174.38 155.169C174.648 154.671 174.913 154.169 175.175 153.664C180.621 155.856 186.123 157.959 189.187 159.072C199.348 162.763 204.229 168.345 201.487 175.723ZM109.36 92.0799C123.299 74.9773 135.801 53.6866 145.561 26.1359C161.437 26.3626 189.299 13.6706 202.239 0.103966C185.464 47.4533 156.971 82.9053 126.983 108.996C120.648 103.611 114.788 97.9933 109.36 92.0799ZM152.684 177.793C146.308 166.387 180.203 139.487 166.837 119.208C164.931 116.315 163.312 118.209 164 121.136C166.739 132.848 156.039 146.621 148.988 160.981C143.208 172.749 147.975 178.312 150.347 180.191C152.121 181.595 153.74 179.68 152.684 177.793V177.793ZM49.976 177.795C56.352 166.387 22.456 139.487 35.824 119.208C37.7293 116.315 39.348 118.209 38.6626 121.136C35.9226 132.848 46.6213 146.621 53.672 160.981C59.4533 172.749 54.6866 178.312 52.3146 180.191C50.54 181.595 48.9213 179.68 49.976 177.795" fill="white"/>
</svg>
