<svg width="351" height="261" viewBox="0 0 351 261" fill="none" xmlns="http://www.w3.org/2000/svg">
<path d="M27.4303 232.36H28.2623V233H14.2463V232.36H15.0783C16.1876 232.36 17.1263 231.976 17.8943 231.208C18.7049 230.397 19.1316 229.437 19.1743 228.328V192.808C19.1316 191.699 18.7049 190.76 17.8943 189.992C17.1263 189.224 16.1876 188.84 15.0783 188.84H14.2463V188.2H28.2623V188.84H27.4303C26.3209 188.84 25.3609 189.224 24.5503 189.992C23.7823 190.76 23.3769 191.699 23.3343 192.808V228.328C23.3343 229.437 23.7396 230.397 24.5503 231.208C25.3609 231.976 26.3209 232.36 27.4303 232.36ZM71.7823 242.6V243.24C70.1609 243.624 68.5396 243.816 66.9183 243.816C59.9209 243.816 53.1369 240.317 46.5662 233.32L25.3823 210.728L40.4863 191.784C40.8276 191.357 40.9983 190.973 40.9983 190.632C40.9983 190.291 40.9343 189.992 40.8063 189.736C40.4649 189.096 39.8463 188.776 38.9503 188.776H38.3103V188.2H51.8143V188.776H51.5583C48.7423 188.776 46.4383 189.779 44.6463 191.784L29.7343 209L51.4943 232.232C54.3103 235.261 57.4676 237.736 60.9663 239.656C64.5076 241.619 68.1129 242.6 71.7823 242.6ZM100.259 188.84H99.2348C98.3388 188.84 97.5494 189.139 96.8668 189.736C96.2268 190.291 95.8854 190.995 95.8428 191.848V217.192C95.8428 222.184 94.2641 226.216 91.1068 229.288C87.9494 232.36 83.7468 233.896 78.4988 233.896C73.2508 233.896 68.9841 232.381 65.6988 229.352C62.4561 226.28 60.8348 222.248 60.8348 217.256V192.04C60.8348 190.76 60.2801 189.821 59.1708 189.224C58.6588 188.968 58.0828 188.84 57.4427 188.84H56.4188V188.2H69.4108V188.84H68.3868C67.4481 188.84 66.6588 189.139 66.0188 189.736C65.3788 190.291 65.0374 191.016 64.9948 191.912V216.36C64.9948 221.011 66.2321 224.765 68.7068 227.624C71.2241 230.483 74.5734 231.912 78.7548 231.912C82.9361 231.912 86.3281 230.568 88.9308 227.88C91.5334 225.149 92.8348 221.587 92.8348 217.192V191.912C92.7921 191.016 92.4508 190.291 91.8108 189.736C91.1708 189.139 90.3814 188.84 89.4428 188.84H88.4188V188.2H100.259V188.84ZM120.493 190.184H116.397V228.328C116.397 229.437 116.781 230.397 117.549 231.208C118.359 231.976 119.341 232.36 120.493 232.36H121.261L121.325 233H107.309V232.36H108.141C109.25 232.36 110.189 231.976 110.957 231.208C111.767 230.44 112.194 229.501 112.237 228.392V192.872C112.194 191.763 111.767 190.824 110.957 190.056C110.189 189.245 109.25 188.84 108.141 188.84H107.309V188.2H124.589C128.471 188.2 131.522 189.288 133.741 191.464C135.959 193.597 137.069 196.392 137.069 199.848C137.069 203.261 136.002 206.227 133.869 208.744C131.778 211.219 129.218 212.456 126.189 212.456C126.829 212.755 127.575 213.352 128.429 214.248C129.325 215.101 130.114 215.997 130.797 216.936C134.466 222.184 136.855 225.427 137.965 226.664C139.074 227.859 139.863 228.691 140.333 229.16C140.802 229.587 141.314 230.013 141.869 230.44C142.423 230.867 142.978 231.208 143.533 231.464C144.77 232.061 146.093 232.36 147.501 232.36V233H143.981C142.146 233 140.439 232.68 138.861 232.04C137.282 231.357 136.087 230.675 135.277 229.992C134.509 229.267 133.826 228.584 133.229 227.944C132.674 227.261 131.095 225.043 128.493 221.288C125.89 217.533 124.375 215.4 123.949 214.888C123.522 214.333 123.074 213.8 122.605 213.288C121.239 211.837 119.874 211.112 118.509 211.112V210.472C118.85 210.515 119.298 210.536 119.853 210.536C120.407 210.536 121.09 210.515 121.901 210.472C127.191 210.344 130.519 208.125 131.885 203.816C132.141 202.963 132.269 202.173 132.269 201.448C132.269 200.68 132.269 200.189 132.269 199.976C132.183 197.117 131.437 194.813 130.029 193.064C128.621 191.315 126.722 190.376 124.333 190.248C123.309 190.205 122.029 190.184 120.493 190.184ZM190.634 188.84H189.61C188.714 188.84 187.924 189.139 187.242 189.736C186.602 190.291 186.26 190.995 186.218 191.848V217.192C186.218 222.184 184.639 226.216 181.482 229.288C178.324 232.36 174.122 233.896 168.874 233.896C163.626 233.896 159.359 232.381 156.074 229.352C152.831 226.28 151.21 222.248 151.21 217.256V192.04C151.21 190.76 150.655 189.821 149.546 189.224C149.034 188.968 148.458 188.84 147.818 188.84H146.794V188.2H159.786V188.84H158.762C157.823 188.84 157.034 189.139 156.394 189.736C155.754 190.291 155.412 191.016 155.37 191.912V216.36C155.37 221.011 156.607 224.765 159.082 227.624C161.599 230.483 164.948 231.912 169.13 231.912C173.311 231.912 176.703 230.568 179.306 227.88C181.908 225.149 183.21 221.587 183.21 217.192V191.912C183.167 191.016 182.826 190.291 182.186 189.736C181.546 189.139 180.756 188.84 179.818 188.84H178.794V188.2H190.634V188.84ZM198.516 232.36C199.625 232.36 200.564 231.976 201.332 231.208C202.142 230.397 202.569 229.437 202.612 228.328V192.872C202.569 191.763 202.142 190.824 201.332 190.056C200.564 189.245 199.625 188.84 198.516 188.84H197.684V188.2H211.7V188.84H210.868C209.332 188.84 208.158 189.501 207.348 190.824C206.964 191.464 206.772 192.147 206.772 192.872V231.016H215.924C219.081 231.016 221.492 230.312 223.156 228.904C224.82 227.496 226.206 225.405 227.316 222.632H227.956L224.244 233H197.684V232.36H198.516ZM261.727 193.896C261.727 192.872 261.365 191.997 260.639 191.272C259.914 190.504 259.061 190.099 258.079 190.056H245.919V228.392C245.962 229.501 246.367 230.44 247.135 231.208C247.946 231.976 248.906 232.36 250.015 232.36H250.847V233H236.831V232.36H237.663C238.773 232.36 239.711 231.976 240.479 231.208C241.29 230.44 241.717 229.523 241.759 228.456V190.056H229.599C228.575 190.099 227.701 190.504 226.975 191.272C226.293 191.997 225.951 192.872 225.951 193.896V194.984L225.311 195.048V186.984C225.951 187.24 227.061 187.496 228.639 187.752C230.218 188.008 231.669 188.136 232.991 188.136H254.623C256.714 188.136 258.442 187.987 259.807 187.688C261.215 187.347 262.069 187.112 262.367 186.984V195.048L261.727 194.984V193.896ZM304.918 232.36H305.43V233H291.03V232.36H291.606C292.502 232.36 293.163 232.083 293.59 231.528C294.059 230.931 294.294 230.376 294.294 229.864C294.294 229.352 294.208 228.84 294.038 228.328L289.942 217.448H272.662L268.374 228.392C268.203 228.904 268.118 229.416 268.118 229.928C268.118 230.397 268.331 230.931 268.758 231.528C269.227 232.083 269.91 232.36 270.806 232.36H271.382V233H258.518V232.36H259.094C260.16 232.36 261.206 232.019 262.23 231.336C263.254 230.653 264.086 229.651 264.726 228.328L279.19 193.896C280.768 190.44 281.558 188.243 281.558 187.304H282.134L299.286 228.328C299.883 229.651 300.694 230.653 301.718 231.336C302.742 232.019 303.808 232.36 304.918 232.36ZM273.43 215.528H289.174L281.494 194.984L273.43 215.528ZM341.353 188.84H340.457C339.177 188.84 337.961 189.203 336.809 189.928C335.7 190.611 334.761 191.485 333.993 192.552L321.385 213.032V228.328C321.385 229.437 321.769 230.397 322.537 231.208C323.348 231.976 324.329 232.36 325.481 232.36H326.249V233H312.297V232.36H313.129C314.239 232.36 315.177 231.976 315.945 231.208C316.756 230.44 317.183 229.501 317.225 228.392V212.968L305.001 192.552C304.361 191.528 303.444 190.653 302.249 189.928C301.097 189.203 299.881 188.84 298.601 188.84H297.705V188.2H313.449V188.84H312.617C311.679 188.84 310.953 189.267 310.441 190.12C310.185 190.589 310.057 191.059 310.057 191.528C310.057 191.955 310.164 192.381 310.377 192.808L319.977 210.728L330.217 192.744C330.431 192.317 330.537 191.891 330.537 191.464C330.537 191.037 330.388 190.589 330.089 190.12C329.577 189.267 328.852 188.84 327.913 188.84H327.145V188.2H341.353V188.84Z" fill="white"/>
<path fill-rule="evenodd" clip-rule="evenodd" d="M174.915 55.5786C172.838 57.3906 168.273 62.3826 169.782 70.284C159.916 65.5586 151.181 70.7546 149.42 73.0106C153.683 72.1333 166.039 71.948 168.969 80.0346C157.478 75.484 151.363 79.3773 148.145 82.5853C145.186 85.5373 140.045 89.0893 135.04 85.384C137.097 92.4013 143.354 92.988 145.573 92.1373C146.972 97.0146 152.041 100.321 156.007 97.7519C148.767 93.7266 152.973 82.4053 162.097 87.1186C164.234 88.2213 165.978 90.5093 166.489 93.1279C168.489 103.419 152.418 109.084 144.473 108.993C156.973 116.316 166.935 106.908 166.935 106.908C170.241 107.668 172.905 109.473 174.915 112.319C176.694 109.629 179.432 107.9 182.894 106.908C182.894 106.908 192.857 116.316 205.356 108.993C197.412 109.084 181.342 103.419 183.342 93.1279C183.852 90.5093 185.595 88.2213 187.733 87.1186C196.856 82.4053 201.063 93.7266 193.824 97.7519C197.788 100.321 202.859 97.0146 204.258 92.1373C206.476 92.988 212.734 92.4013 214.789 85.384C209.785 89.0893 204.644 85.5373 201.684 82.5853C198.466 79.3773 192.352 75.484 180.86 80.0346C183.791 71.948 196.146 72.1333 200.41 73.0106C198.648 70.7546 189.913 65.5586 180.048 70.284C181.558 62.3826 176.992 57.3906 174.915 55.5786ZM173.087 11.5253C169.21 14.8946 165.747 18.7666 162.707 23.0546C157.791 23.6746 152.962 24.6386 148.221 25.9253C154.71 18.9173 162.954 13.8026 173.087 11.5253ZM226.463 48.6093C218.526 23.3146 201.236 4.05059 174.915 -7.62939e-05C148.594 4.05059 131.303 23.3146 123.366 48.6093C139.067 39.072 156.33 33.4026 174.915 33.2306C193.499 33.4026 210.763 39.072 226.463 48.6093ZM251.362 150.451C201.338 111.021 148.491 111.021 98.4681 150.451C97.8335 149.513 97.1908 148.58 96.548 147.649C88.4331 135.888 79.7517 124.155 70.485 113.16C67.5806 109.711 69.3156 104.76 72.4321 102.295C83.1669 93.8039 93.5839 85.0146 103.545 76.3079C124.106 58.1053 148.142 46.4533 174.915 46.2053C201.688 46.4533 225.724 58.1053 246.286 76.3079C256.246 85.0146 266.663 93.8039 277.398 102.295C280.515 104.76 282.249 109.711 279.345 113.16C270.079 124.155 261.397 135.888 253.282 147.649C252.64 148.58 251.996 149.513 251.362 150.451ZM231.038 153.549C194.557 127.692 155.274 127.692 118.793 153.549C134.083 154.637 145.032 151.911 157.318 148.149C170.655 144.065 177.338 142.401 189.3 142.916C186.178 144.733 182.654 147.413 180.86 148.863C197.955 149.809 212.906 154.837 231.038 153.549Z" fill="white"/>
</svg>
