<svg width="351" height="261" viewBox="0 0 351 261" fill="none" xmlns="http://www.w3.org/2000/svg">
<path d="M87.4113 241.704C86.3446 242.856 84.8086 243.965 82.8033 245.032C80.8406 246.141 78.8566 246.952 76.8512 247.464C74.8886 248.019 73.1393 248.296 71.6033 248.296C66.6539 248.296 61.9606 247.336 57.5233 245.416C55.9019 244.691 53.2353 243.368 49.5233 241.448C41.1179 237.139 34.8246 234.6 30.6433 233.832C23.8166 233.491 18.2913 231.208 14.0673 226.984C9.84325 222.76 7.73125 217.235 7.73125 210.408C7.73125 203.581 9.99258 198.035 14.5153 193.768C19.0806 189.459 25.0113 187.304 32.3073 187.304C39.6033 187.304 45.5339 189.459 50.0993 193.768C54.6646 198.035 56.9473 203.645 56.9473 210.6C56.9473 216.701 55.1553 221.8 51.5713 225.896C48.0299 229.992 43.2939 232.531 37.3633 233.512C41.8433 234.877 48.7339 237.544 58.0353 241.512C62.5579 243.389 67.1659 244.328 71.8593 244.328C74.5046 244.328 77.1713 244.008 79.8593 243.368C83.6139 242.387 86.7499 240.723 89.2673 238.376L89.5233 238.696C89.1819 239.592 88.4779 240.595 87.4113 241.704ZM18.0353 195.112C14.4513 199.037 12.6593 204.2 12.6593 210.6C12.6593 217 14.4513 222.163 18.0353 226.088C21.6619 230.013 26.4193 231.976 32.3073 231.976C38.1953 231.976 42.9313 230.013 46.5153 226.088C50.1419 222.163 51.9553 217 51.9553 210.6C51.9553 204.2 50.1419 199.037 46.5153 195.112C42.9313 191.187 38.1953 189.224 32.3073 189.224C26.4193 189.224 21.6619 191.187 18.0353 195.112ZM106.134 188.84H105.11C104.214 188.84 103.424 189.139 102.742 189.736C102.102 190.291 101.76 190.995 101.718 191.848V217.192C101.718 222.184 100.139 226.216 96.9818 229.288C93.8244 232.36 89.6218 233.896 84.3738 233.896C79.1258 233.896 74.8591 232.381 71.5738 229.352C68.3311 226.28 66.7098 222.248 66.7098 217.256V192.04C66.7098 190.76 66.1551 189.821 65.0458 189.224C64.5338 188.968 63.9578 188.84 63.3177 188.84H62.2938V188.2H75.2858V188.84H74.2618C73.3231 188.84 72.5338 189.139 71.8938 189.736C71.2538 190.291 70.9124 191.016 70.8698 191.912V216.36C70.8698 221.011 72.1071 224.765 74.5818 227.624C77.0991 230.483 80.4484 231.912 84.6298 231.912C88.8111 231.912 92.2031 230.568 94.8058 227.88C97.4084 225.149 98.7098 221.587 98.7098 217.192V191.912C98.6671 191.016 98.3258 190.291 97.6858 189.736C97.0458 189.139 96.2564 188.84 95.3178 188.84H94.2938V188.2H106.134V188.84ZM126.368 190.184H122.272V228.328C122.272 229.437 122.656 230.397 123.424 231.208C124.234 231.976 125.216 232.36 126.368 232.36H127.136L127.2 233H113.184V232.36H114.016C115.125 232.36 116.064 231.976 116.832 231.208C117.642 230.44 118.069 229.501 118.112 228.392V192.872C118.069 191.763 117.642 190.824 116.832 190.056C116.064 189.245 115.125 188.84 114.016 188.84H113.184V188.2H130.464C134.346 188.2 137.397 189.288 139.616 191.464C141.834 193.597 142.944 196.392 142.944 199.848C142.944 203.261 141.877 206.227 139.744 208.744C137.653 211.219 135.093 212.456 132.064 212.456C132.704 212.755 133.45 213.352 134.304 214.248C135.2 215.101 135.989 215.997 136.672 216.936C140.341 222.184 142.73 225.427 143.84 226.664C144.949 227.859 145.738 228.691 146.208 229.16C146.677 229.587 147.189 230.013 147.744 230.44C148.298 230.867 148.853 231.208 149.408 231.464C150.645 232.061 151.968 232.36 153.376 232.36V233H149.856C148.021 233 146.314 232.68 144.736 232.04C143.157 231.357 141.962 230.675 141.152 229.992C140.384 229.267 139.701 228.584 139.104 227.944C138.549 227.261 136.97 225.043 134.368 221.288C131.765 217.533 130.25 215.4 129.824 214.888C129.397 214.333 128.949 213.8 128.48 213.288C127.114 211.837 125.749 211.112 124.384 211.112V210.472C124.725 210.515 125.173 210.536 125.728 210.536C126.282 210.536 126.965 210.515 127.776 210.472C133.066 210.344 136.394 208.125 137.76 203.816C138.016 202.963 138.144 202.173 138.144 201.448C138.144 200.68 138.144 200.189 138.144 199.976C138.058 197.117 137.312 194.813 135.904 193.064C134.496 191.315 132.597 190.376 130.208 190.248C129.184 190.205 127.904 190.184 126.368 190.184ZM196.509 188.84H195.485C194.589 188.84 193.799 189.139 193.117 189.736C192.477 190.291 192.135 190.995 192.093 191.848V217.192C192.093 222.184 190.514 226.216 187.357 229.288C184.199 232.36 179.997 233.896 174.749 233.896C169.501 233.896 165.234 232.381 161.949 229.352C158.706 226.28 157.085 222.248 157.085 217.256V192.04C157.085 190.76 156.53 189.821 155.421 189.224C154.909 188.968 154.333 188.84 153.693 188.84H152.669V188.2H165.661V188.84H164.637C163.698 188.84 162.909 189.139 162.269 189.736C161.629 190.291 161.287 191.016 161.245 191.912V216.36C161.245 221.011 162.482 224.765 164.957 227.624C167.474 230.483 170.823 231.912 175.005 231.912C179.186 231.912 182.578 230.568 185.181 227.88C187.783 225.149 189.085 221.587 189.085 217.192V191.912C189.042 191.016 188.701 190.291 188.061 189.736C187.421 189.139 186.631 188.84 185.693 188.84H184.669V188.2H196.509V188.84ZM204.391 232.36C205.5 232.36 206.439 231.976 207.207 231.208C208.017 230.397 208.444 229.437 208.487 228.328V192.872C208.444 191.763 208.017 190.824 207.207 190.056C206.439 189.245 205.5 188.84 204.391 188.84H203.559V188.2H217.575V188.84H216.743C215.207 188.84 214.033 189.501 213.223 190.824C212.839 191.464 212.647 192.147 212.647 192.872V231.016H221.799C224.956 231.016 227.367 230.312 229.031 228.904C230.695 227.496 232.081 225.405 233.191 222.632H233.831L230.119 233H203.559V232.36H204.391ZM267.602 193.896C267.602 192.872 267.24 191.997 266.514 191.272C265.789 190.504 264.936 190.099 263.954 190.056H251.794V228.392C251.837 229.501 252.242 230.44 253.01 231.208C253.821 231.976 254.781 232.36 255.89 232.36H256.722V233H242.706V232.36H243.538C244.648 232.36 245.586 231.976 246.354 231.208C247.165 230.44 247.592 229.523 247.634 228.456V190.056H235.474C234.45 190.099 233.576 190.504 232.85 191.272C232.168 191.997 231.826 192.872 231.826 193.896V194.984L231.186 195.048V186.984C231.826 187.24 232.936 187.496 234.514 187.752C236.093 188.008 237.544 188.136 238.866 188.136H260.498C262.589 188.136 264.317 187.987 265.682 187.688C267.09 187.347 267.944 187.112 268.242 186.984V195.048L267.602 194.984V193.896ZM310.793 232.36H311.305V233H296.905V232.36H297.481C298.377 232.36 299.038 232.083 299.465 231.528C299.934 230.931 300.169 230.376 300.169 229.864C300.169 229.352 300.083 228.84 299.913 228.328L295.817 217.448H278.537L274.249 228.392C274.078 228.904 273.993 229.416 273.993 229.928C273.993 230.397 274.206 230.931 274.633 231.528C275.102 232.083 275.785 232.36 276.681 232.36H277.257V233H264.393V232.36H264.969C266.035 232.36 267.081 232.019 268.105 231.336C269.129 230.653 269.961 229.651 270.601 228.328L285.065 193.896C286.643 190.44 287.433 188.243 287.433 187.304H288.009L305.161 228.328C305.758 229.651 306.569 230.653 307.593 231.336C308.617 232.019 309.683 232.36 310.793 232.36ZM279.305 215.528H295.049L287.369 194.984L279.305 215.528ZM347.228 188.84H346.332C345.052 188.84 343.836 189.203 342.684 189.928C341.575 190.611 340.636 191.485 339.868 192.552L327.26 213.032V228.328C327.26 229.437 327.644 230.397 328.412 231.208C329.223 231.976 330.204 232.36 331.356 232.36H332.124V233H318.172V232.36H319.004C320.114 232.36 321.052 231.976 321.82 231.208C322.631 230.44 323.058 229.501 323.1 228.392V212.968L310.876 192.552C310.236 191.528 309.319 190.653 308.124 189.928C306.972 189.203 305.756 188.84 304.476 188.84H303.58V188.2H319.324V188.84H318.492C317.554 188.84 316.828 189.267 316.316 190.12C316.06 190.589 315.932 191.059 315.932 191.528C315.932 191.955 316.039 192.381 316.252 192.808L325.852 210.728L336.092 192.744C336.306 192.317 336.412 191.891 336.412 191.464C336.412 191.037 336.263 190.589 335.964 190.12C335.452 189.267 334.727 188.84 333.788 188.84H333.02V188.2H347.228V188.84Z" fill="white"/>
<path fill-rule="evenodd" clip-rule="evenodd" d="M174.915 55.5786C172.838 57.3906 168.273 62.3826 169.782 70.284C159.916 65.5586 151.181 70.7546 149.42 73.0106C153.683 72.1333 166.039 71.948 168.969 80.0346C157.478 75.484 151.363 79.3773 148.145 82.5853C145.186 85.5373 140.045 89.0893 135.04 85.384C137.097 92.4013 143.354 92.988 145.573 92.1373C146.972 97.0146 152.041 100.321 156.007 97.7519C148.767 93.7266 152.973 82.4053 162.097 87.1186C164.234 88.2213 165.978 90.5093 166.489 93.1279C168.489 103.419 152.418 109.084 144.473 108.993C156.973 116.316 166.935 106.908 166.935 106.908C170.241 107.668 172.905 109.473 174.915 112.319C176.694 109.629 179.432 107.9 182.894 106.908C182.894 106.908 192.857 116.316 205.356 108.993C197.412 109.084 181.342 103.419 183.342 93.1279C183.852 90.5093 185.595 88.2213 187.733 87.1186C196.856 82.4053 201.063 93.7266 193.824 97.7519C197.788 100.321 202.859 97.0146 204.258 92.1373C206.476 92.988 212.734 92.4013 214.789 85.384C209.785 89.0893 204.644 85.5373 201.684 82.5853C198.466 79.3773 192.352 75.484 180.86 80.0346C183.791 71.948 196.146 72.1333 200.41 73.0106C198.648 70.7546 189.913 65.5586 180.048 70.284C181.558 62.3826 176.992 57.3906 174.915 55.5786ZM173.087 11.5253C169.21 14.8946 165.747 18.7666 162.707 23.0546C157.791 23.6746 152.962 24.6386 148.221 25.9253C154.71 18.9173 162.954 13.8026 173.087 11.5253ZM226.463 48.6093C218.526 23.3146 201.236 4.05058 174.915 -7.62939e-05C148.594 4.05058 131.303 23.3146 123.366 48.6093C139.067 39.072 156.33 33.4026 174.915 33.2306C193.499 33.4026 210.763 39.072 226.463 48.6093ZM251.362 150.451C201.338 111.021 148.491 111.021 98.4681 150.451C97.8335 149.513 97.1908 148.58 96.548 147.649C88.4331 135.888 79.7517 124.155 70.485 113.16C67.5806 109.711 69.3156 104.76 72.4321 102.295C83.1669 93.8039 93.5839 85.0146 103.545 76.3079C124.106 58.1053 148.142 46.4533 174.915 46.2053C201.688 46.4533 225.724 58.1053 246.286 76.3079C256.245 85.0146 266.663 93.8039 277.398 102.295C280.515 104.76 282.249 109.711 279.345 113.16C270.079 124.155 261.397 135.888 253.282 147.649C252.64 148.58 251.996 149.513 251.362 150.451ZM231.038 153.549C194.557 127.692 155.274 127.692 118.793 153.549C134.083 154.637 145.032 151.911 157.318 148.149C170.655 144.065 177.338 142.401 189.3 142.916C186.178 144.733 182.654 147.413 180.86 148.863C197.955 149.809 212.906 154.837 231.038 153.549Z" fill="white"/>
</svg>
