<svg width="341" height="63" viewBox="0 0 341 63" fill="none" xmlns="http://www.w3.org/2000/svg">
<path d="M80.4113 55.704C79.3446 56.856 77.8086 57.9653 75.8033 59.032C73.8406 60.1413 71.8566 60.952 69.8512 61.464C67.8886 62.0187 66.1393 62.296 64.6033 62.296C59.6539 62.296 54.9606 61.336 50.5233 59.416C48.9019 58.6907 46.2353 57.368 42.5233 55.448C34.1179 51.1387 27.8246 48.6 23.6433 47.832C16.8166 47.4907 11.2913 45.208 7.06725 40.984C2.84325 36.76 0.73125 31.2347 0.73125 24.408C0.73125 17.5813 2.99258 12.0347 7.51525 7.768C12.0806 3.45866 18.0113 1.304 25.3073 1.304C32.6033 1.304 38.5339 3.45866 43.0993 7.768C47.6646 12.0347 49.9473 17.6453 49.9473 24.6C49.9473 30.7013 48.1553 35.8 44.5713 39.896C41.0299 43.992 36.2939 46.5307 30.3633 47.512C34.8433 48.8773 41.7339 51.544 51.0353 55.512C55.5579 57.3893 60.1659 58.328 64.8593 58.328C67.5046 58.328 70.1713 58.008 72.8593 57.368C76.6139 56.3867 79.7499 54.7227 82.2673 52.376L82.5233 52.696C82.1819 53.592 81.4779 54.5947 80.4113 55.704ZM11.0353 9.112C7.45125 13.0373 5.65925 18.2 5.65925 24.6C5.65925 31 7.45125 36.1627 11.0353 40.088C14.6619 44.0133 19.4193 45.976 25.3073 45.976C31.1953 45.976 35.9313 44.0133 39.5153 40.088C43.1419 36.1627 44.9553 31 44.9553 24.6C44.9553 18.2 43.1419 13.0373 39.5153 9.112C35.9313 5.18667 31.1953 3.224 25.3073 3.224C19.4193 3.224 14.6619 5.18667 11.0353 9.112ZM99.1338 2.84H98.1098C97.2138 2.84 96.4244 3.13866 95.7418 3.736C95.1018 4.29066 94.7604 4.99466 94.7178 5.848V31.192C94.7178 36.184 93.1391 40.216 89.9818 43.288C86.8244 46.36 82.6218 47.896 77.3738 47.896C72.1258 47.896 67.8591 46.3813 64.5738 43.352C61.3311 40.28 59.7098 36.248 59.7098 31.256V6.04C59.7098 4.76 59.1551 3.82133 58.0458 3.224C57.5338 2.968 56.9578 2.84 56.3177 2.84H55.2938V2.2H68.2858V2.84H67.2618C66.3231 2.84 65.5338 3.13866 64.8938 3.736C64.2538 4.29066 63.9124 5.016 63.8698 5.912V30.36C63.8698 35.0107 65.1071 38.7653 67.5818 41.624C70.0991 44.4827 73.4484 45.912 77.6298 45.912C81.8111 45.912 85.2031 44.568 87.8058 41.88C90.4084 39.1493 91.7098 35.5867 91.7098 31.192V5.912C91.6671 5.016 91.3258 4.29066 90.6858 3.736C90.0458 3.13866 89.2564 2.84 88.3178 2.84H87.2938V2.2H99.1338V2.84ZM119.368 4.184H115.272V42.328C115.272 43.4373 115.656 44.3973 116.424 45.208C117.234 45.976 118.216 46.36 119.368 46.36H120.136L120.2 47H106.184V46.36H107.016C108.125 46.36 109.064 45.976 109.832 45.208C110.642 44.44 111.069 43.5013 111.112 42.392V6.872C111.069 5.76266 110.642 4.824 109.832 4.056C109.064 3.24533 108.125 2.84 107.016 2.84H106.184V2.2H123.464C127.346 2.2 130.397 3.288 132.616 5.464C134.834 7.59733 135.944 10.392 135.944 13.848C135.944 17.2613 134.877 20.2267 132.744 22.744C130.653 25.2187 128.093 26.456 125.064 26.456C125.704 26.7547 126.45 27.352 127.304 28.248C128.2 29.1013 128.989 29.9973 129.672 30.936C133.341 36.184 135.73 39.4267 136.84 40.664C137.949 41.8587 138.738 42.6907 139.208 43.16C139.677 43.5867 140.189 44.0133 140.744 44.44C141.298 44.8667 141.853 45.208 142.408 45.464C143.645 46.0613 144.968 46.36 146.376 46.36V47H142.856C141.021 47 139.314 46.68 137.736 46.04C136.157 45.3573 134.962 44.6747 134.152 43.992C133.384 43.2667 132.701 42.584 132.104 41.944C131.549 41.2613 129.97 39.0427 127.368 35.288C124.765 31.5333 123.25 29.4 122.824 28.888C122.397 28.3333 121.949 27.8 121.48 27.288C120.114 25.8373 118.749 25.112 117.384 25.112V24.472C117.725 24.5147 118.173 24.536 118.728 24.536C119.282 24.536 119.965 24.5147 120.776 24.472C126.066 24.344 129.394 22.1253 130.76 17.816C131.016 16.9627 131.144 16.1733 131.144 15.448C131.144 14.68 131.144 14.1893 131.144 13.976C131.058 11.1173 130.312 8.81333 128.904 7.064C127.496 5.31467 125.597 4.376 123.208 4.248C122.184 4.20533 120.904 4.184 119.368 4.184ZM189.509 2.84H188.485C187.589 2.84 186.799 3.13866 186.117 3.736C185.477 4.29066 185.135 4.99466 185.093 5.848V31.192C185.093 36.184 183.514 40.216 180.357 43.288C177.199 46.36 172.997 47.896 167.749 47.896C162.501 47.896 158.234 46.3813 154.949 43.352C151.706 40.28 150.085 36.248 150.085 31.256V6.04C150.085 4.76 149.53 3.82133 148.421 3.224C147.909 2.968 147.333 2.84 146.693 2.84H145.669V2.2H158.661V2.84H157.637C156.698 2.84 155.909 3.13866 155.269 3.736C154.629 4.29066 154.287 5.016 154.245 5.912V30.36C154.245 35.0107 155.482 38.7653 157.957 41.624C160.474 44.4827 163.823 45.912 168.005 45.912C172.186 45.912 175.578 44.568 178.181 41.88C180.783 39.1493 182.085 35.5867 182.085 31.192V5.912C182.042 5.016 181.701 4.29066 181.061 3.736C180.421 3.13866 179.631 2.84 178.693 2.84H177.669V2.2H189.509V2.84ZM197.391 46.36C198.5 46.36 199.439 45.976 200.207 45.208C201.017 44.3973 201.444 43.4373 201.487 42.328V6.872C201.444 5.76266 201.017 4.824 200.207 4.056C199.439 3.24533 198.5 2.84 197.391 2.84H196.559V2.2H210.575V2.84H209.743C208.207 2.84 207.033 3.50133 206.223 4.824C205.839 5.464 205.647 6.14666 205.647 6.872V45.016H214.799C217.956 45.016 220.367 44.312 222.031 42.904C223.695 41.496 225.081 39.4053 226.191 36.632H226.831L223.119 47H196.559V46.36H197.391ZM260.602 7.896C260.602 6.872 260.24 5.99733 259.514 5.272C258.789 4.504 257.936 4.09867 256.954 4.056H244.794V42.392C244.837 43.5013 245.242 44.44 246.01 45.208C246.821 45.976 247.781 46.36 248.89 46.36H249.722V47H235.706V46.36H236.538C237.648 46.36 238.586 45.976 239.354 45.208C240.165 44.44 240.592 43.5227 240.634 42.456V4.056H228.474C227.45 4.09867 226.576 4.504 225.85 5.272C225.168 5.99733 224.826 6.872 224.826 7.896V8.984L224.186 9.048V0.983997C224.826 1.24 225.936 1.496 227.514 1.752C229.093 2.008 230.544 2.136 231.866 2.136H253.498C255.589 2.136 257.317 1.98667 258.682 1.688C260.09 1.34667 260.944 1.112 261.242 0.983997V9.048L260.602 8.984V7.896ZM303.793 46.36H304.305V47H289.905V46.36H290.481C291.377 46.36 292.038 46.0827 292.465 45.528C292.934 44.9307 293.169 44.376 293.169 43.864C293.169 43.352 293.083 42.84 292.913 42.328L288.817 31.448H271.537L267.249 42.392C267.078 42.904 266.993 43.416 266.993 43.928C266.993 44.3973 267.206 44.9307 267.633 45.528C268.102 46.0827 268.785 46.36 269.681 46.36H270.257V47H257.393V46.36H257.969C259.035 46.36 260.081 46.0187 261.105 45.336C262.129 44.6533 262.961 43.6507 263.601 42.328L278.065 7.896C279.643 4.44 280.433 2.24266 280.433 1.304H281.009L298.161 42.328C298.758 43.6507 299.569 44.6533 300.593 45.336C301.617 46.0187 302.683 46.36 303.793 46.36ZM272.305 29.528H288.049L280.369 8.984L272.305 29.528ZM340.228 2.84H339.332C338.052 2.84 336.836 3.20266 335.684 3.928C334.575 4.61067 333.636 5.48533 332.868 6.552L320.26 27.032V42.328C320.26 43.4373 320.644 44.3973 321.412 45.208C322.223 45.976 323.204 46.36 324.356 46.36H325.124V47H311.172V46.36H312.004C313.114 46.36 314.052 45.976 314.82 45.208C315.631 44.44 316.058 43.5013 316.1 42.392V26.968L303.876 6.552C303.236 5.528 302.319 4.65333 301.124 3.928C299.972 3.20266 298.756 2.84 297.476 2.84H296.58V2.2H312.324V2.84H311.492C310.554 2.84 309.828 3.26666 309.316 4.12C309.06 4.58933 308.932 5.05866 308.932 5.528C308.932 5.95467 309.039 6.38133 309.252 6.808L318.852 24.728L329.092 6.744C329.306 6.31733 329.412 5.89066 329.412 5.464C329.412 5.03733 329.263 4.58933 328.964 4.12C328.452 3.26666 327.727 2.84 326.788 2.84H326.02V2.2H340.228V2.84Z" fill="white"/>
</svg>
