<svg width="328" height="58" viewBox="0 0 328 58" fill="none" xmlns="http://www.w3.org/2000/svg">
<path d="M13.4303 46.36H14.2623V47H0.24625V46.36H1.07825C2.18758 46.36 3.12625 45.976 3.89425 45.208C4.70492 44.3973 5.13158 43.4373 5.17425 42.328V6.808C5.13158 5.69866 4.70492 4.76 3.89425 3.992C3.12625 3.224 2.18758 2.84 1.07825 2.84H0.24625V2.2H14.2623V2.84H13.4303C12.3209 2.84 11.3609 3.224 10.5503 3.992C9.78225 4.76 9.37692 5.69866 9.33425 6.808V42.328C9.33425 43.4373 9.73958 44.3973 10.5503 45.208C11.3609 45.976 12.3209 46.36 13.4303 46.36ZM57.7823 56.6V57.24C56.1609 57.624 54.5396 57.816 52.9183 57.816C45.9209 57.816 39.1369 54.3173 32.5662 47.32L11.3823 24.728L26.4863 5.784C26.8276 5.35733 26.9983 4.97333 26.9983 4.632C26.9983 4.29066 26.9343 3.992 26.8063 3.736C26.4649 3.096 25.8463 2.776 24.9503 2.776H24.3103V2.2H37.8143V2.776H37.5583C34.7423 2.776 32.4383 3.77866 30.6463 5.784L15.7343 23L37.4943 46.232C40.3103 49.2613 43.4676 51.736 46.9663 53.656C50.5076 55.6187 54.1129 56.6 57.7823 56.6ZM86.2588 2.84H85.2348C84.3388 2.84 83.5494 3.13866 82.8668 3.736C82.2268 4.29066 81.8854 4.99466 81.8428 5.848V31.192C81.8428 36.184 80.2641 40.216 77.1068 43.288C73.9494 46.36 69.7468 47.896 64.4988 47.896C59.2508 47.896 54.9841 46.3813 51.6988 43.352C48.4561 40.28 46.8348 36.248 46.8348 31.256V6.04C46.8348 4.76 46.2801 3.82133 45.1708 3.224C44.6588 2.968 44.0828 2.84 43.4427 2.84H42.4188V2.2H55.4108V2.84H54.3868C53.4481 2.84 52.6588 3.13866 52.0188 3.736C51.3788 4.29066 51.0374 5.016 50.9948 5.912V30.36C50.9948 35.0107 52.2321 38.7653 54.7068 41.624C57.2241 44.4827 60.5734 45.912 64.7548 45.912C68.9361 45.912 72.3281 44.568 74.9308 41.88C77.5334 39.1493 78.8348 35.5867 78.8348 31.192V5.912C78.7921 5.016 78.4508 4.29066 77.8108 3.736C77.1708 3.13866 76.3814 2.84 75.4428 2.84H74.4188V2.2H86.2588V2.84ZM106.493 4.184H102.397V42.328C102.397 43.4373 102.781 44.3973 103.549 45.208C104.359 45.976 105.341 46.36 106.493 46.36H107.261L107.325 47H93.3088V46.36H94.1408C95.2501 46.36 96.1888 45.976 96.9568 45.208C97.7674 44.44 98.1941 43.5013 98.2368 42.392V6.872C98.1941 5.76266 97.7674 4.824 96.9568 4.056C96.1888 3.24533 95.2501 2.84 94.1408 2.84H93.3088V2.2H110.589C114.471 2.2 117.522 3.288 119.741 5.464C121.959 7.59733 123.069 10.392 123.069 13.848C123.069 17.2613 122.002 20.2267 119.869 22.744C117.778 25.2187 115.218 26.456 112.189 26.456C112.829 26.7547 113.575 27.352 114.429 28.248C115.325 29.1013 116.114 29.9973 116.797 30.936C120.466 36.184 122.855 39.4267 123.965 40.664C125.074 41.8587 125.863 42.6907 126.333 43.16C126.802 43.5867 127.314 44.0133 127.869 44.44C128.423 44.8667 128.978 45.208 129.533 45.464C130.77 46.0613 132.093 46.36 133.501 46.36V47H129.981C128.146 47 126.439 46.68 124.861 46.04C123.282 45.3573 122.087 44.6747 121.277 43.992C120.509 43.2667 119.826 42.584 119.229 41.944C118.674 41.2613 117.095 39.0427 114.493 35.288C111.89 31.5333 110.375 29.4 109.949 28.888C109.522 28.3333 109.074 27.8 108.605 27.288C107.239 25.8373 105.874 25.112 104.509 25.112V24.472C104.85 24.5147 105.298 24.536 105.853 24.536C106.407 24.536 107.09 24.5147 107.901 24.472C113.191 24.344 116.519 22.1253 117.885 17.816C118.141 16.9627 118.269 16.1733 118.269 15.448C118.269 14.68 118.269 14.1893 118.269 13.976C118.183 11.1173 117.437 8.81333 116.029 7.064C114.621 5.31467 112.722 4.376 110.333 4.248C109.309 4.20533 108.029 4.184 106.493 4.184ZM176.634 2.84H175.61C174.714 2.84 173.924 3.13866 173.242 3.736C172.602 4.29066 172.26 4.99466 172.218 5.848V31.192C172.218 36.184 170.639 40.216 167.482 43.288C164.324 46.36 160.122 47.896 154.874 47.896C149.626 47.896 145.359 46.3813 142.074 43.352C138.831 40.28 137.21 36.248 137.21 31.256V6.04C137.21 4.76 136.655 3.82133 135.546 3.224C135.034 2.968 134.458 2.84 133.818 2.84H132.794V2.2H145.786V2.84H144.762C143.823 2.84 143.034 3.13866 142.394 3.736C141.754 4.29066 141.412 5.016 141.37 5.912V30.36C141.37 35.0107 142.607 38.7653 145.082 41.624C147.599 44.4827 150.948 45.912 155.13 45.912C159.311 45.912 162.703 44.568 165.306 41.88C167.908 39.1493 169.21 35.5867 169.21 31.192V5.912C169.167 5.016 168.826 4.29066 168.186 3.736C167.546 3.13866 166.756 2.84 165.818 2.84H164.794V2.2H176.634V2.84ZM184.516 46.36C185.625 46.36 186.564 45.976 187.332 45.208C188.142 44.3973 188.569 43.4373 188.612 42.328V6.872C188.569 5.76266 188.142 4.824 187.332 4.056C186.564 3.24533 185.625 2.84 184.516 2.84H183.684V2.2H197.7V2.84H196.868C195.332 2.84 194.158 3.50133 193.348 4.824C192.964 5.464 192.772 6.14666 192.772 6.872V45.016H201.924C205.081 45.016 207.492 44.312 209.156 42.904C210.82 41.496 212.206 39.4053 213.316 36.632H213.956L210.244 47H183.684V46.36H184.516ZM247.727 7.896C247.727 6.872 247.365 5.99733 246.639 5.272C245.914 4.504 245.061 4.09867 244.079 4.056H231.919V42.392C231.962 43.5013 232.367 44.44 233.135 45.208C233.946 45.976 234.906 46.36 236.015 46.36H236.847V47H222.831V46.36H223.663C224.773 46.36 225.711 45.976 226.479 45.208C227.29 44.44 227.717 43.5227 227.759 42.456V4.056H215.599C214.575 4.09867 213.701 4.504 212.975 5.272C212.293 5.99733 211.951 6.872 211.951 7.896V8.984L211.311 9.048V0.983997C211.951 1.24 213.061 1.496 214.639 1.752C216.218 2.008 217.669 2.136 218.991 2.136H240.623C242.714 2.136 244.442 1.98667 245.807 1.688C247.215 1.34667 248.069 1.112 248.367 0.983997V9.048L247.727 8.984V7.896ZM290.918 46.36H291.43V47H277.03V46.36H277.606C278.502 46.36 279.163 46.0827 279.59 45.528C280.059 44.9307 280.294 44.376 280.294 43.864C280.294 43.352 280.208 42.84 280.038 42.328L275.942 31.448H258.662L254.374 42.392C254.203 42.904 254.118 43.416 254.118 43.928C254.118 44.3973 254.331 44.9307 254.758 45.528C255.227 46.0827 255.91 46.36 256.806 46.36H257.382V47H244.518V46.36H245.094C246.16 46.36 247.206 46.0187 248.23 45.336C249.254 44.6533 250.086 43.6507 250.726 42.328L265.19 7.896C266.768 4.44 267.558 2.24266 267.558 1.304H268.134L285.286 42.328C285.883 43.6507 286.694 44.6533 287.718 45.336C288.742 46.0187 289.808 46.36 290.918 46.36ZM259.43 29.528H275.174L267.494 8.984L259.43 29.528ZM327.353 2.84H326.457C325.177 2.84 323.961 3.20266 322.809 3.928C321.7 4.61067 320.761 5.48533 319.993 6.552L307.385 27.032V42.328C307.385 43.4373 307.769 44.3973 308.537 45.208C309.348 45.976 310.329 46.36 311.481 46.36H312.249V47H298.297V46.36H299.129C300.239 46.36 301.177 45.976 301.945 45.208C302.756 44.44 303.183 43.5013 303.225 42.392V26.968L291.001 6.552C290.361 5.528 289.444 4.65333 288.249 3.928C287.097 3.20266 285.881 2.84 284.601 2.84H283.705V2.2H299.449V2.84H298.617C297.679 2.84 296.953 3.26666 296.441 4.12C296.185 4.58933 296.057 5.05866 296.057 5.528C296.057 5.95467 296.164 6.38133 296.377 6.808L305.977 24.728L316.217 6.744C316.431 6.31733 316.537 5.89066 316.537 5.464C316.537 5.03733 316.388 4.58933 316.089 4.12C315.577 3.26666 314.852 2.84 313.913 2.84H313.145V2.2H327.353V2.84Z" fill="white"/>
</svg>
