<svg width="209" height="211" viewBox="0 0 209 211" fill="none" xmlns="http://www.w3.org/2000/svg">
<path fill-rule="evenodd" clip-rule="evenodd" d="M179.035 29.6733L55.3614 138.687L52.876 135.732C75.4453 115.507 150.797 49.9933 176.649 27.1227L179.035 29.6733ZM66.208 208.799C112.663 206.125 136.264 160.719 142.364 118.829C147.501 168.231 117.217 222.209 66.208 208.799ZM99.6507 69.7266C51.9573 71.6333 26.6494 87.4826 12.524 104.019C-25.6839 148.749 33.44 217.193 88.0774 187.997C118.675 171.647 133.241 125.031 134.124 93.9799L63.9707 153.723L70.0707 160.764L64.0574 165.899L31.6227 129.832L36.8494 124.892L54.6214 144.785L181.827 32.5453C183.456 33.7306 185.797 33.6866 187.377 32.34L207.152 15.4666C208.944 13.9373 209.095 11.2906 207.5 9.58528L200.064 1.63326C198.467 -0.0747375 195.691 -0.221375 193.907 1.30396L174.131 18.1773C172.343 19.7013 172.172 22.36 173.781 24.056L173.959 24.2439C157.056 39.4706 140.285 54.7093 123.228 69.7813C115.333 69.6 107.557 69.412 99.6507 69.7266Z" fill="white"/>
</svg>
